# xmcd
#
# Track frame offsets:
#	150
#	21746
#	43056
#	93794
#	123483
#	143029
#	171397
#	197107
#	251605
#	293860
#
# Disc length: 4333 seconds
#
# Revision: 0
# Processed by: cddbd v1.5.2PL0 Copyright (c) Steve Scherf et al.
# Submitted via: audiograbber 1.83.01
#
DISCID=9610eb0a
DTITLE=Grateful Dead - 94-03-06 Desert Sky Pavilion, Phoenix AZ
DYEAR=1900
DGENRE=
TTITLE0=Help On The Way
TTITLE1=Slipknot!
TTITLE2=Franklin's Tower
TTITLE3=Spoonful
TTITLE4=Jack-A-Roe
TTITLE5=When I Paint My Masterpiece
TTITLE6=Brown-Eyed Women
TTITLE7=Let It Grow
TTITLE8=Easy Answers
TTITLE9=Lazy River Road
EXTD=
EXTT0=
EXTT1=
EXTT2=
EXTT3=
EXTT4=
EXTT5=
EXTT6=
EXTT7=
EXTT8=
EXTT9=
PLAYORDER=
